<?xml version="1.0" standalone="no"?>
<!DOCTYPE svg PUBLIC "-//W3C//DTD SVG 20010904//EN"
 "http://www.w3.org/TR/2001/REC-SVG-20010904/DTD/svg10.dtd">
<svg version="1.0" xmlns="http://www.w3.org/2000/svg"
 width="500.000000pt" height="500.000000pt" viewBox="0 0 500.000000 500.000000"
 preserveAspectRatio="xMidYMid meet">

<g transform="translate(0.000000,500.000000) scale(0.100000,-0.100000)"
fill="#000000" stroke="none">
<path d="M2046 3656 c-245 -143 -446 -263 -446 -266 0 -3 74 -50 165 -104 91
-54 165 -100 165 -102 0 -2 -17 -4 -37 -3 -31 0 -34 2 -18 10 13 6 -3 7 -50 4
-50 -4 -64 -2 -50 5 14 7 0 8 -50 5 -50 -4 -64 -2 -50 5 14 7 0 8 -50 5 -50
-4 -64 -2 -50 5 14 7 -2 8 -55 5 -54 -4 -69 -2 -55 5 14 7 0 8 -50 5 -50 -4
-64 -2 -50 5 14 7 0 8 -50 5 -50 -4 -64 -2 -50 5 14 7 0 8 -50 5 -50 -4 -64
-2 -50 5 14 7 0 8 -50 4 -53 -4 -66 -3 -55 6 11 8 -2 10 -55 5 -51 -4 -65 -2
-50 5 15 8 7 9 -32 5 -34 -4 -53 -2 -53 5 0 5 -5 10 -11 10 -9 0 -118 60 -177
98 l-22 14 0 -459 0 -459 65 -38 c36 -21 65 -40 65 -42 0 -2 -29 -20 -65 -41
l-65 -37 2 -459 3 -459 905 -536 c538 -319 915 -536 930 -536 15 0 375 207
930 536 l905 536 3 459 2 458 -47 27 c-95 53 -94 50 -19 93 l66 39 0 453 c0
249 -2 453 -4 453 -2 0 -153 -88 -337 -195 -268 -157 -341 -195 -369 -194 -29
0 -32 2 -15 10 13 6 -3 7 -50 4 -50 -4 -64 -2 -50 5 14 7 0 8 -50 5 -50 -4
-64 -2 -50 5 14 7 0 8 -50 4 -53 -4 -66 -3 -55 6 11 8 -2 10 -55 5 -50 -4 -64
-2 -50 5 14 7 0 8 -50 5 -50 -4 -64 -2 -50 5 14 7 0 8 -50 5 -50 -4 -64 -2
-50 5 14 7 1 8 -50 5 -38 -2 -62 -2 -52 1 9 3 15 9 13 13 -3 4 101 70 229 147
129 76 234 141 234 144 0 3 -82 53 -182 112 -100 58 -300 176 -444 261 l-261
155 -446 -262z m513 -689 l60 -33 -64 -38 -65 -38 -65 38 -64 38 57 32 c31 18
63 33 69 33 7 1 40 -14 72 -32z"/>
</g>
</svg>
